# xmcd
#
# Track frame offsets: 
#        150
#        8390
#        31276
#        46187
#        46863
#        73268
#        91744
#        109544
#        127808
#        143616
#        144463
#        163619
#        180041
#        182409
#        198359
#        214311
#        230603
#        243790
#        245724
#
# Disc length: 3451 seconds
#
# Revision: 0
# Processed by: cddbd v1.5.1PL0 Copyright (c) Steve Scherf et al.
# Submitted via: ExactAudioCopy v0.95a5
#
DISCID=ec0d7913
DTITLE=CCB - Forbidden Love
DYEAR=2005
DGENRE=Country
TTITLE0=Instructions
TTITLE1=Smooth And Easy
TTITLE2=Missing You
TTITLE3=Romance
TTITLE4=Just Like Tonight
TTITLE5=Friends And Lovers
TTITLE6=Faster
TTITLE7=Sundown
TTITLE8=Mr. Brown
TTITLE9=Stereo Functional
TTITLE10=Longer
TTITLE11=Feeling Kind Of Crazy
TTITLE12=Schizophrenic
TTITLE13=Tell Me When
TTITLE14=This Time Is Mine
TTITLE15=Forbidden Love
TTITLE16=After The Show
TTITLE17=The End
TTITLE18=Circle Walk 2-Gether Break
EXTD=
EXTT0=
EXTT1=
EXTT2=
EXTT3=
EXTT4=
EXTT5=
EXTT6=
EXTT7=
EXTT8=
EXTT9=
EXTT10=
EXTT11=
EXTT12=
EXTT13=
EXTT14=
EXTT15=
EXTT16=
EXTT17=
EXTT18=
PLAYORDER=
